####
#
# OBJ File Generated by Meshlab
#
####
# Object portal.obj
#
# Vertices: 76
# Faces: 64
#
####
vn 0.000000 0.000000 0.592900
v -0.158942 -0.118173 0.006091 1.000000 0.964706 0.992157
vn 0.000000 0.000000 0.592900
v -0.110014 -0.069245 0.006091 1.000000 0.964706 0.992157
vn 0.000000 0.000000 0.592900
v -0.207869 -0.069245 0.006091 1.000000 0.964706 0.992157
vn 0.000000 0.000000 0.592900
v -0.158942 -0.020317 0.006091 1.000000 0.964706 0.992157
vn 0.000000 0.000000 0.592900
v -0.168487 -0.021258 0.006091 1.000000 0.964706 0.992157
vn 0.000000 0.000000 0.592900
v -0.193539 -0.034648 0.006091 1.000000 0.964706 0.992157
vn 0.000000 0.000000 0.592900
v -0.177665 -0.024042 0.006091 1.000000 0.964706 0.992157
vn 0.000000 0.000000 0.592900
v -0.186124 -0.028563 0.006091 1.000000 0.964706 0.992157
vn 0.000000 0.000000 0.592900
v -0.199623 -0.042062 0.006091 1.000000 0.964706 0.992157
vn 0.000000 0.000000 0.592900
v -0.204145 -0.050521 0.006091 1.000000 0.964706 0.992157
vn 0.000000 0.000000 0.592900
v -0.206929 -0.059700 0.006091 1.000000 0.964706 0.992157
vn 0.000000 0.000000 0.592900
v -0.206929 -0.078790 0.006091 1.000000 0.964706 0.992157
vn 0.000000 0.000000 0.592900
v -0.204145 -0.087969 0.006091 1.000000 0.964706 0.992157
vn 0.000000 0.000000 0.592900
v -0.199623 -0.096428 0.006091 1.000000 0.964706 0.992157
vn 0.000000 0.000000 0.592900
v -0.193539 -0.103842 0.006091 1.000000 0.964706 0.992157
vn 0.000000 0.000000 0.592900
v -0.186124 -0.109927 0.006091 1.000000 0.964706 0.992157
vn 0.000000 0.000000 0.592900
v -0.177665 -0.114448 0.006091 1.000000 0.964706 0.992157
vn 0.000000 0.000000 0.592900
v -0.168487 -0.117233 0.006091 1.000000 0.964706 0.992157
vn 0.000000 0.000000 0.592900
v -0.149396 -0.117233 0.006091 1.000000 0.964706 0.992157
vn 0.000000 0.000000 0.592900
v -0.140218 -0.114448 0.006091 1.000000 0.964706 0.992157
vn 0.000000 0.000000 0.592900
v -0.131759 -0.109927 0.006091 1.000000 0.964706 0.992157
vn 0.000000 0.000000 0.592900
v -0.124344 -0.103842 0.006091 1.000000 0.964706 0.992157
vn 0.000000 0.000000 0.592900
v -0.118260 -0.096428 0.006091 1.000000 0.964706 0.992157
vn 0.000000 0.000000 0.592900
v -0.113738 -0.087969 0.006091 1.000000 0.964706 0.992157
vn 0.000000 0.000000 0.592900
v -0.110954 -0.078790 0.006091 1.000000 0.964706 0.992157
vn 0.000000 0.000000 0.592900
v -0.110954 -0.059700 0.006091 1.000000 0.964706 0.992157
vn 0.000000 0.000000 0.592900
v -0.113738 -0.050521 0.006091 1.000000 0.964706 0.992157
vn 0.000000 0.000000 0.592900
v -0.118260 -0.042062 0.006091 1.000000 0.964706 0.992157
vn 0.000000 0.000000 0.592900
v -0.124345 -0.034648 0.006091 1.000000 0.964706 0.992157
vn 0.000000 0.000000 0.592900
v -0.131759 -0.028563 0.006091 1.000000 0.964706 0.992157
vn 0.000000 0.000000 0.592900
v -0.140218 -0.024042 0.006091 1.000000 0.964706 0.992157
vn 0.000000 0.000000 0.592900
v -0.149396 -0.021257 0.006091 1.000000 0.964706 0.992157
vn 0.000000 0.000000 -0.592900
v 0.498009 -0.144375 0.001925 1.000000 0.909804 0.066667
vn 0.000000 0.000000 -0.592900
v 0.240335 0.000000 0.001925 1.000000 0.992157 0.129412
vn 0.000000 0.000000 -0.592900
v 0.496650 0.145127 0.001925 1.000000 0.909804 0.000000
vn 0.000000 0.000000 0.592900
v 0.000000 -0.192500 0.000000 1.000000 0.619608 0.549020
vn 0.000000 0.000000 0.592900
v 0.066146 0.188801 0.000000 1.000000 0.619608 0.549020
vn 0.000000 0.000000 0.592900
v 0.000000 0.192500 0.000000 1.000000 0.619608 0.549020
vn 0.000000 0.000000 0.592900
v -0.066147 0.188801 0.000000 1.000000 0.619608 0.549020
vn 0.000000 0.000000 0.592900
v -0.066146 -0.188801 0.000000 1.000000 0.619608 0.549020
vn 0.000000 0.000000 0.592900
v -0.129751 0.177847 0.000000 1.000000 0.619608 0.549020
vn 0.000000 0.000000 0.592900
v -0.188369 0.160058 0.000000 1.000000 0.619608 0.549020
vn 0.000000 0.000000 0.592900
v -0.188369 -0.160058 0.000000 1.000000 0.619608 0.549020
vn 0.000000 0.000000 0.592900
v -0.239748 0.136118 0.000000 1.000000 0.619608 0.549020
vn 0.000000 0.000000 0.592900
v -0.281914 0.106948 0.000000 1.000000 0.619608 0.549020
vn 0.000000 0.000000 0.592900
v -0.281914 -0.106948 0.000000 1.000000 0.619608 0.549020
vn 0.000000 0.000000 0.592900
v -0.313246 0.073667 0.000000 1.000000 0.619608 0.549020
vn 0.000000 0.000000 0.592900
v -0.332540 0.037554 0.000000 1.000000 0.619608 0.549020
vn 0.000000 0.000000 0.592900
v -0.313246 -0.073667 0.000000 1.000000 0.619608 0.549020
vn 0.000000 0.000000 0.592900
v -0.339055 0.000000 0.000000 1.000000 0.619608 0.549020
vn 0.000000 0.000000 0.592900
v -0.332540 -0.037554 0.000000 1.000000 0.686275 0.627451
vn 0.000000 0.000000 0.592900
v -0.239748 -0.136118 0.000000 1.000000 0.619608 0.549020
vn 0.000000 0.000000 0.592900
v -0.129751 -0.177847 0.000000 1.000000 0.619608 0.549020
vn 0.000000 0.000000 0.592900
v 0.066147 -0.188801 0.000000 1.000000 0.619608 0.549020
vn 0.000000 0.000000 0.592900
v 0.129751 -0.177847 0.000000 1.000000 0.619608 0.549020
vn 0.000000 0.000000 0.592900
v 0.188369 -0.160058 0.000000 1.000000 0.619608 0.549020
vn 0.000000 0.000000 0.592900
v 0.188368 0.160058 0.000000 1.000000 0.619608 0.549020
vn 0.000000 0.000000 0.592900
v 0.239748 -0.136118 0.000000 1.000000 0.619608 0.549020
vn 0.000000 0.000000 0.592900
v 0.281915 -0.106948 0.000000 1.000000 0.619608 0.549020
vn 0.000000 0.000000 0.592900
v 0.281914 0.106948 0.000000 1.000000 0.619608 0.549020
vn 0.000000 0.000000 0.592900
v 0.313246 -0.073667 0.000000 1.000000 0.619608 0.549020
vn 0.000000 0.000000 0.592900
v 0.332541 -0.037554 0.000000 1.000000 0.619608 0.549020
vn 0.000000 0.000000 0.592900
v 0.332540 0.037555 0.000000 1.000000 0.619608 0.549020
vn 0.000000 0.000000 0.592900
v 0.339055 0.000000 0.000000 1.000000 0.619608 0.549020
vn 0.000000 0.000000 0.592900
v 0.313246 0.073667 0.000000 1.000000 0.619608 0.549020
vn 0.000000 0.000000 0.592900
v 0.239748 0.136118 0.000000 1.000000 0.619608 0.549020
vn 0.000000 0.000000 0.592900
v 0.129750 0.177847 0.000000 1.000000 0.619608 0.549020
vn 0.000000 0.000000 -0.592900
v 0.084425 -0.274637 0.001925 1.000000 0.294118 0.474510
vn 0.000000 0.000000 -0.592900
v -0.173248 -0.130262 0.001925 1.000000 0.294118 0.474510
vn 0.000000 0.000000 -0.592900
v 0.083067 0.014865 0.001925 1.000000 0.294118 0.474510

# New Triangle: Fin
v 0.083067  0.160000  0.001925 1.000000 0.294118 0.474510 0.000000  # Fin vertex 1 (red)
v 0.183067  0.010000  0.001925 1.000000 0.294118 0.474510 0.000000  # Fin vertex 2 (red)
v -0.016933  0.010000  0.001925 1.000000 0.294118 0.474510 0.000000  # Fin vertex 3 (red)

# New Mouth Vertex:
v -0.216933 0.100000 0.001925 0.000000 0.000000 0.000000 0.000000  # Mouth vertex 1 (black)
v -0.176933 0.050000 0.001925 0.000000 0.000000 0.000000 0.000000  # Mouth vertex 2 (black)
v -0.256933 0.050000 0.001925 0.000000 0.000000 0.000000 0.000000  # Mouth vertex 3 (black)

# 76 vertices, 0 vertices normals

# Fish body vertex
f 36//36 37//37 38//38
f 38//38 39//39 40//40
f 41//41 42//42 43//43
f 44//44 45//45 46//46
f 47//47 48//48 49//49
f 50//50 51//51 48//48
f 49//49 46//46 45//45
f 52//52 43//43 42//42
f 53//53 40//40 39//39
f 36//36 54//54 37//37
f 55//55 56//56 57//57
f 58//58 59//59 60//60
f 61//61 62//62 63//63
f 64//64 63//63 62//62
f 65//65 60//60 59//59
f 66//66 57//57 56//56
f 67//67 37//37 54//54
f 39//39 41//41 53//53
f 45//45 47//47 49//49
f 51//51 49//49 48//48
f 43//43 53//53 41//41
f 54//54 55//55 67//67
f 59//59 61//61 65//65
f 63//63 65//65 61//61
f 57//57 67//67 55//55
f 42//42 44//44 52//52
f 46//46 52//52 44//44
f 56//56 58//58 66//66
f 60//60 66//66 58//58
f 38//38 40//40 36//36

# 30 faces, 0 coords texture

# End of File

